<svg width="307" height="62" viewBox="0 0 307 62" fill="none" xmlns="http://www.w3.org/2000/svg">
<path d="M12.8752 39.827C11.5086 39.827 10.1208 39.7845 8.71155 39.6994C7.30233 39.6568 5.91446 39.5504 4.54794 39.3802C1.51598 39.125 0 38.1463 0 36.4443C0 35.5933 0.341629 34.5721 1.02489 33.3807C2.64763 30.4447 4.31307 27.53 6.02122 24.6366C7.72936 21.7006 9.41616 18.7647 11.0816 15.8287C11.594 14.8926 12.256 13.7225 13.0673 12.3183C13.8787 10.9141 14.6901 9.57381 15.5014 8.2973C15.8858 7.7016 16.4409 7.10589 17.1669 6.51019C17.8928 5.87193 18.6402 5.46771 19.4088 5.29751C18.512 5.34006 17.359 5.40388 15.9498 5.48898C14.5833 5.57408 13.1741 5.74428 11.7222 5.99959C10.3129 6.21234 9.03183 6.57401 7.87883 7.08462C6.76853 7.55267 5.97851 8.2122 5.50877 9.0632C5.33796 9.44615 5.1885 9.82911 5.06039 10.2121C4.93227 10.595 4.86822 10.978 4.86822 11.3609C4.86822 12.3396 5.20985 13.0417 5.89311 13.4672C5.93581 13.4672 6.87907 13.3821 6.87907 13.4672C6.87907 13.5523 6.06392 13.8288 5.89311 13.9139C5.76499 13.999 5.44472 13.9565 5.31661 13.9139C4.93227 13.7012 4.46253 13.1906 3.90739 12.3821C3.35224 11.5311 3.01061 10.829 2.8825 10.2759C2.75439 9.76528 2.69033 9.29723 2.69033 8.87173C2.69033 7.76542 3.05331 6.91442 3.77927 6.31871C4.50524 5.68046 5.42337 5.23368 6.53366 4.97838C7.64396 4.68053 8.7756 4.51033 9.9286 4.46777C11.0816 4.38268 12.1065 4.34013 13.0033 4.34013C15.2666 4.34013 17.5299 4.31885 19.7931 4.2763C22.0564 4.1912 24.2984 4.14865 26.519 4.14865C27.5012 4.14865 28.462 4.14865 29.4015 4.14865C30.3837 4.14865 31.3445 4.1912 32.284 4.2763C33.3516 4.31885 34.0775 4.5316 34.4619 4.91455C34.8889 5.29751 35.1024 5.76556 35.1024 6.31871C35.1024 6.99952 34.8675 7.7867 34.3978 8.68025C33.9708 9.53125 33.5651 10.3184 33.1807 11.0418C33.0099 11.3822 32.1559 12.8502 31.7715 13.0204C31.3872 13.148 31.8142 11.8077 31.8996 11.4247C32.1132 10.5737 32.2199 9.72273 32.2199 8.87173C32.2199 8.10582 32.0705 7.42502 31.7715 6.82932C31.5153 6.19106 31.0029 5.74428 30.2342 5.48898C29.5082 5.27623 28.3766 5.16986 26.8393 5.16986C26.2841 5.16986 25.7076 5.19113 25.1098 5.23368C24.5546 5.23368 23.9781 5.25496 23.3803 5.29751C21.6721 5.42516 20.5191 5.87193 19.9213 6.63784C18.512 8.59515 17.1455 10.7227 15.8217 13.0204C14.5406 15.2755 13.3022 17.4243 12.1065 19.4667C12.0638 19.5518 12.0424 19.6582 12.0424 19.7859C12.0424 20.0412 12.2346 20.1688 12.6189 20.1688C14.1136 20.1688 15.715 20.1901 17.4231 20.2326C19.1739 20.2752 20.7113 20.2752 22.0351 20.2326C22.334 20.1901 22.7824 20.1475 23.3803 20.105C24.0208 20.0624 24.6614 19.9773 25.3019 19.8497C25.9852 19.722 26.4976 19.5731 26.8393 19.4029C27.0528 19.2753 27.4107 18.2451 27.245 17.786C27.245 17.786 27.4798 19.4667 27.2236 19.9773C27.0101 20.4454 26.6257 20.9347 26.0706 21.4453C25.5581 21.9134 24.9603 22.1474 24.277 22.1474C22.1846 22.1474 20.4124 22.1049 18.9604 22.0198C17.5512 21.9347 15.9712 21.8921 14.2203 21.8921C13.7933 21.8921 13.3449 21.8921 12.8752 21.8921C12.4054 21.8921 11.893 21.9134 11.3378 21.9559C10.9108 21.9985 10.6119 22.1687 10.441 22.4665C10.014 23.2324 9.62968 23.9345 9.28805 24.5728C8.98912 25.211 8.60479 25.9556 8.13505 26.8067C7.79342 27.4449 7.36638 28.2746 6.85394 29.2958C6.3842 30.2745 5.95716 31.2957 5.57283 32.3595C5.1885 33.3807 4.99633 34.2742 4.99633 35.0401C4.99633 36.3592 5.61553 37.274 6.85394 37.7846C8.09235 38.2527 9.60833 38.508 11.4019 38.5505C13.8787 38.5505 16.3128 38.3165 18.7042 37.8484C21.1383 37.3378 23.4016 36.5081 25.4941 35.3593C27.6293 34.1678 29.4869 32.5722 31.0669 30.5724C31.1523 30.4873 31.2164 30.4447 31.2591 30.4447C31.3872 30.4447 31.4726 30.5724 31.5153 30.8277C31.558 31.0404 31.5367 31.2106 31.4513 31.3383C30.1274 32.9552 28.8463 34.5295 27.6079 36.0613C26.3695 37.5506 25.1311 38.4867 23.8927 38.8696C22.9959 39.125 21.544 39.3377 19.5369 39.5079C17.5299 39.7207 15.3093 39.827 12.8752 39.827Z" fill="black"/>
<path d="M39.3646 39.2526C38.9376 39.2526 38.5746 39.1675 38.2757 38.9973C37.9767 38.8271 37.8273 38.508 37.8273 38.0399C37.8273 37.4442 37.9767 36.7634 38.2757 35.9975C38.5746 35.2316 38.9162 34.487 39.3006 33.7636C39.6849 32.9977 40.0265 32.3807 40.3254 31.9127C38.8308 33.487 37.2721 34.9763 35.6494 36.3805C34.838 37.0613 33.9412 37.6995 32.9591 38.2952C31.9769 38.8909 30.9306 39.1888 29.8203 39.1888C29.3933 39.1888 29.0944 39.0611 28.9236 38.8058C28.7527 38.508 28.6673 38.1676 28.6673 37.7846C28.6673 37.5719 28.6887 37.4229 28.7314 37.3378C28.9449 35.6784 29.4787 33.9551 30.3328 32.168C31.1869 30.3809 32.2331 28.7001 33.4715 27.1258C34.7099 25.5514 35.9697 24.2749 37.2508 23.2963C38.233 22.5729 39.1724 22.1261 40.0692 21.9559C40.966 21.7432 41.9482 21.6368 43.0158 21.6368H45.1296C45.8129 20.4879 46.5175 19.2114 47.2434 17.8073C48.0121 16.3606 48.7594 14.9351 49.4854 13.531C50.254 12.1268 50.9587 10.8929 51.5992 9.82911C53.3501 6.85059 55.2717 4.46778 57.3642 2.68067C59.4994 0.893555 61.8694 0 64.4744 0C65.0295 0 65.542 0.170201 66.0117 0.510604C66.4814 0.808457 66.695 1.27651 66.6523 1.91476L66.5241 4.21248C66.5241 4.25503 66.4814 4.31885 66.396 4.40395C66.3106 4.4465 66.2466 4.46777 66.2039 4.46777C66.1612 4.46777 66.0971 4.42523 66.0117 4.34013C65.8836 3.57422 65.4993 2.99979 64.8587 2.61684C64.2181 2.19134 63.4281 1.97859 62.4886 1.97859C62.1897 1.97859 61.8481 1.99986 61.4638 2.04241C61.1221 2.08496 60.7805 2.17006 60.4389 2.29771C59.2432 2.72322 58.1115 3.5955 57.0439 4.91455C55.9763 6.19106 54.8233 7.89307 53.5849 10.0206C53.1579 10.829 52.6027 11.8928 51.9195 13.2119C51.2362 14.4884 50.5103 15.8712 49.7416 17.3605C49.0156 18.8498 48.311 20.2965 47.6278 21.7006C46.9872 23.1048 46.4321 24.2962 45.9623 25.2748C45.7488 25.7854 45.3858 26.5726 44.8734 27.6364C44.3609 28.6576 43.8058 29.7852 43.2079 31.0191C42.6528 32.2105 42.1617 33.3168 41.7347 34.338C41.3503 35.3593 41.1582 36.0826 41.1582 36.5081C41.1582 37.1038 41.4144 37.4017 41.9268 37.4017C42.4393 37.4017 43.1225 37.1038 43.9766 36.5081C44.8307 35.8699 45.7061 35.104 46.6029 34.2104C47.5424 33.2743 48.3751 32.3807 49.101 31.5297C49.8697 30.6787 50.4035 30.0405 50.7024 29.615C50.8305 29.7426 50.8946 29.8915 50.8946 30.0617C50.8946 30.3596 50.7665 30.6575 50.5103 30.9553C50.2967 31.2532 50.1046 31.5085 49.9338 31.7212C49.1651 32.7424 48.2043 33.8487 47.0513 35.0401C45.941 36.189 44.7239 37.1889 43.4001 38.0399C42.0763 38.8484 40.7311 39.2526 39.3646 39.2526ZM32.4466 37.0187C32.9591 37.0187 33.6637 36.657 34.5604 35.9337C35.4999 35.1678 36.5035 34.2317 37.5711 33.1254C38.6386 31.9765 39.6422 30.7851 40.5817 29.5511C41.5211 28.2746 42.2898 27.1258 42.8877 26.1046C43.5282 25.0408 43.8485 24.2324 43.8485 23.6792C43.8485 23.2112 43.699 22.892 43.4001 22.7218C43.1439 22.5516 42.8023 22.4665 42.3752 22.4665C41.692 22.4665 40.9446 22.7218 40.1333 23.2324C39.3646 23.7005 38.7454 24.1685 38.2757 24.6366C37.7632 25.1046 37.144 25.8493 36.4181 26.8705C35.7348 27.8491 35.0515 28.9342 34.3683 30.1256C33.685 31.317 33.1085 32.4658 32.6388 33.5721C32.169 34.6785 31.9342 35.572 31.9342 36.2528C31.9342 36.7634 32.105 37.0187 32.4466 37.0187Z" fill="black"/>
<path d="M53.069 39.2526C52.6419 39.2526 52.279 39.1675 51.98 38.9973C51.6811 38.8271 51.5316 38.508 51.5316 38.0399C51.5316 37.4442 51.6811 36.7421 51.98 35.9337C52.3217 35.1252 52.6847 34.3168 53.069 33.5083C53.4533 32.6999 53.7736 32.0403 54.0298 31.5297C54.5423 30.5511 55.0333 29.5724 55.5031 28.5938C55.9728 27.6151 56.3785 26.7854 56.7201 26.1046C57.0618 25.4663 57.2326 25.0408 57.2326 24.8281C57.2326 24.4877 56.9764 24.4877 56.4639 24.8281C55.9942 25.1685 55.5458 25.5089 55.1188 25.8493C54.1793 26.7428 53.1971 27.8066 52.1722 29.0405C51.1473 30.2319 50.3573 31.1893 49.8021 31.9127C49.674 32.0829 49.5673 32.168 49.4819 32.168C49.3965 32.168 49.3538 32.0616 49.3538 31.8489C49.3538 31.5085 49.4605 31.1893 49.674 30.8915C50.2719 30.0405 50.9765 29.1044 51.7879 28.0832C52.5992 27.062 53.432 26.0833 54.286 25.1472C55.0974 24.2962 55.9301 23.4665 56.7842 22.658C57.6383 21.8496 58.7272 21.4453 60.051 21.4453C60.9478 21.4453 61.3962 21.7857 61.3962 22.4665C61.3962 23.0622 61.14 23.743 60.6275 24.5089C60.3286 24.977 59.8589 25.7642 59.2183 26.8705C58.5778 27.9768 57.9158 29.1895 57.2326 30.5085C56.592 31.785 56.0369 32.9764 55.5672 34.0827C55.0974 35.1891 54.8625 35.9975 54.8625 36.5081C54.8625 37.1038 55.1615 37.4017 55.7593 37.4017C56.229 37.4017 56.8055 37.1676 57.4888 36.6996C58.1721 36.189 58.8767 35.5933 59.6026 34.9125C60.9265 33.636 62.1222 32.2531 63.1898 30.7638C64.3 29.232 65.2395 27.764 66.0082 26.3599C66.8196 24.9557 67.4601 23.8069 67.9299 22.9133C68.0153 22.7431 68.1007 22.5516 68.1861 22.3389C68.3142 22.0836 68.5064 21.9347 68.7626 21.8921C69.0188 21.8496 69.574 21.8283 70.428 21.8283C71.2821 21.8283 72.0721 21.6581 72.7981 21.3177H72.9262C73.0543 21.3177 73.1184 21.3815 73.1184 21.5091C73.1184 21.8496 72.8408 22.1049 72.2856 22.2751C71.7732 22.4453 71.1753 22.9559 70.4921 23.8069C69.8515 24.6579 69.211 25.7003 68.5704 26.9343C67.9299 28.1257 67.3534 29.3597 66.8409 30.6362C66.3285 31.9127 65.9441 33.0828 65.6879 34.1466C65.4317 35.2103 65.3676 35.9975 65.4958 36.5081C65.6666 37.1038 65.9655 37.4017 66.3925 37.4017C66.9477 37.4017 67.7163 37.0613 68.6985 36.3805C69.7234 35.6997 70.7697 34.8912 71.8372 33.9551C72.9048 32.9764 73.7803 32.0829 74.4635 31.2744C74.7625 30.934 75.04 30.5936 75.2962 30.2532C75.5525 29.9128 75.7233 29.7001 75.8087 29.615C75.8514 29.6575 75.8941 29.7426 75.9368 29.8703C75.9795 29.9554 76.0009 30.0405 76.0009 30.1256C75.9582 30.4234 75.8514 30.7213 75.6806 31.0191C75.5098 31.2744 75.3176 31.5085 75.1041 31.7212C74.2927 32.785 73.3105 33.9125 72.1575 35.104C71.0472 36.2528 69.8302 37.2315 68.5064 38.0399C67.2253 38.8484 65.9014 39.2526 64.5349 39.2526C64.1079 39.2526 63.6168 39.1462 63.0616 38.9335C62.5492 38.7207 62.293 38.2527 62.293 37.5293C62.293 36.9762 62.4424 36.2315 62.7414 35.2954C63.0403 34.3168 63.3606 33.3594 63.7022 32.4233C64.0865 31.4446 64.4068 30.7213 64.663 30.2532C64.1079 31.0617 63.4246 31.9765 62.6133 32.9977C61.8446 33.9764 61.0546 34.8487 60.2432 35.6146C59.1756 36.6358 58.0226 37.508 56.7842 38.2314C55.5885 38.9122 54.3501 39.2526 53.069 39.2526Z" fill="black"/>
<path d="M83.3402 39.2526C82.9132 39.2526 82.5502 39.1675 82.2513 38.9973C81.9523 38.8271 81.8029 38.508 81.8029 38.0399C81.8029 37.4442 81.9523 36.7634 82.2513 35.9975C82.5502 35.2316 82.8918 34.487 83.2762 33.7636C83.6605 32.9977 84.0021 32.3807 84.301 31.9127C82.8064 33.487 81.2477 34.9763 79.625 36.3805C78.8136 37.0613 77.9168 37.6995 76.9347 38.2952C75.9525 38.8909 74.9062 39.1888 73.7959 39.1888C73.3689 39.1888 73.07 39.0611 72.8992 38.8058C72.7283 38.508 72.6429 38.1676 72.6429 37.7846C72.6429 37.5719 72.6643 37.4229 72.707 37.3378C72.9205 35.6784 73.4543 33.9551 74.3084 32.168C75.1625 30.3809 76.2087 28.7001 77.4471 27.1258C78.6855 25.5514 79.9453 24.2749 81.2264 23.2963C82.6783 22.19 84.2797 21.6368 86.0305 21.6368H93.3969C93.6104 21.6368 93.7172 21.7219 93.7172 21.8921C93.7172 22.2325 93.525 22.4027 93.1407 22.4027C92.7137 22.4027 92.2866 22.6793 91.8596 23.2324C91.4325 23.743 91.1123 24.1685 90.8988 24.5089C90.5998 24.977 90.1301 25.7642 89.4895 26.8705C88.849 27.9768 88.1871 29.1895 87.5038 30.5085C86.8633 31.785 86.3081 32.9764 85.8384 34.0827C85.3686 35.1891 85.1338 35.9975 85.1338 36.5081C85.1338 37.1038 85.4327 37.4017 86.0305 37.4017C86.6711 37.4017 87.3971 37.1038 88.2084 36.5081C89.0198 35.9124 89.8312 35.189 90.6425 34.338C91.4966 33.4445 92.2653 32.5722 92.9485 31.7212C93.6745 30.8277 94.251 30.1256 94.678 29.615C94.9343 29.8703 94.9129 30.2319 94.614 30.7C94.3578 31.1255 94.1229 31.4659 93.9094 31.7212C93.0553 32.8275 92.0731 33.9764 90.9628 35.1678C89.8525 36.3166 88.6355 37.2953 87.3117 38.1037C86.0305 38.8696 84.7067 39.2526 83.3402 39.2526ZM76.4222 37.0187C76.9347 37.0187 77.6393 36.657 78.536 35.9337C79.4755 35.1678 80.4791 34.2317 81.5467 33.1254C82.6143 31.9765 83.6178 30.7851 84.5573 29.5511C85.4967 28.2746 86.2654 27.1258 86.8633 26.1046C87.5038 25.0408 87.8241 24.2324 87.8241 23.6792C87.8241 23.2112 87.6746 22.892 87.3757 22.7218C87.1195 22.5516 86.7779 22.4665 86.3508 22.4665C85.6676 22.4665 84.9202 22.7218 84.1089 23.2324C83.3402 23.7005 82.721 24.1685 82.2513 24.6366C81.7388 25.1046 81.1196 25.8493 80.3937 26.8705C79.7104 27.8491 79.0271 28.9342 78.3439 30.1256C77.6606 31.317 77.0841 32.4658 76.6144 33.5721C76.1446 34.6785 75.9098 35.572 75.9098 36.2528C75.9098 36.7634 76.0806 37.0187 76.4222 37.0187Z" fill="black"/>
<path d="M93.8418 39.9547C93.671 39.9547 93.671 39.7845 93.8418 39.4441C94.0553 39.0611 94.2475 38.6356 94.4183 38.1676C94.6318 37.6995 94.8453 37.1889 95.0589 36.6358C95.4859 35.6146 95.9557 34.4657 96.4681 33.1892C96.9805 31.9127 97.4716 30.6787 97.9414 29.4873C98.4111 28.2534 98.8168 27.2109 99.1584 26.3599C99.5427 25.4663 99.799 24.8919 99.9271 24.6366C99.3292 25.2748 98.6033 26.0833 97.7492 27.062C96.9378 27.9981 96.1692 28.9129 95.4432 29.8064C94.7172 30.7 94.1621 31.4021 93.7778 31.9127C93.6496 32.0829 93.5429 32.168 93.4575 32.168C93.3721 32.168 93.3294 32.0616 93.3294 31.8489C93.3294 31.5085 93.4361 31.1893 93.6496 30.8915C94.461 29.8703 95.3578 28.7214 96.34 27.4449C97.3649 26.1684 98.283 24.9983 99.0944 23.9345C99.9057 22.8282 100.418 22.1049 100.632 21.7644C101.101 21.6793 101.785 21.5517 102.681 21.3815C103.621 21.2113 104.261 20.9773 104.603 20.6794C104.731 20.5518 104.859 20.4879 104.987 20.4879C105.073 20.4879 105.116 20.573 105.116 20.7432C105.158 20.8709 105.116 21.0198 104.987 21.19C104.731 21.4453 104.347 21.9985 103.834 22.8495C103.365 23.7005 102.831 24.6791 102.233 25.7854C101.635 26.8918 101.059 27.9555 100.504 28.9767C100.931 28.3385 101.486 27.5938 102.169 26.7428C102.895 25.8493 103.685 24.9983 104.539 24.1898C105.393 23.3388 106.247 22.6367 107.101 22.0836C107.998 21.5304 108.831 21.2538 109.599 21.2538C110.155 21.2538 110.624 21.3815 111.009 21.6368C111.393 21.8496 111.692 22.2538 111.905 22.8495C112.034 23.1473 112.098 23.4877 112.098 23.8707C112.098 24.594 111.905 25.2961 111.521 25.9769C111.179 26.6152 110.923 27.1045 110.752 27.4449C110.71 27.5726 110.56 27.7002 110.304 27.8279C110.048 27.913 109.941 27.8704 109.984 27.7002C110.026 27.4875 110.048 27.2747 110.048 27.062C110.091 26.8492 110.112 26.6152 110.112 26.3599C110.112 25.6365 109.962 24.977 109.664 24.3813C109.407 23.7856 108.916 23.4877 108.19 23.4877C107.507 23.4877 106.674 23.9132 105.692 24.7642C104.71 25.6152 103.728 26.5939 102.746 27.7002C101.507 29.1469 100.525 30.5298 99.799 31.8489C99.073 33.1254 98.4752 34.3806 98.0054 35.6146C97.7492 36.2954 97.493 36.9762 97.2367 37.657C96.9805 38.2952 96.7884 38.8058 96.6603 39.1888C96.1051 39.2313 95.55 39.359 94.9948 39.5717C94.4397 39.827 94.0553 39.9547 93.8418 39.9547Z" fill="black"/>
<path d="M119.622 39.2526C119.195 39.2526 118.832 39.1675 118.533 38.9973C118.234 38.8271 118.084 38.508 118.084 38.0399C118.084 37.4442 118.234 36.7634 118.533 35.9975C118.832 35.2316 119.173 34.487 119.558 33.7636C119.942 32.9977 120.284 32.3807 120.582 31.9127C119.088 33.487 117.529 34.9763 115.906 36.3805C115.095 37.0613 114.198 37.6995 113.216 38.2952C112.234 38.8909 111.188 39.1888 110.077 39.1888C109.65 39.1888 109.351 39.0611 109.181 38.8058C109.01 38.508 108.924 38.1676 108.924 37.7846C108.924 37.5719 108.946 37.4229 108.988 37.3378C109.202 35.6784 109.736 33.9551 110.59 32.168C111.444 30.3809 112.49 28.7001 113.729 27.1258C114.967 25.5514 116.227 24.2749 117.508 23.2963C118.49 22.5729 119.429 22.1261 120.326 21.9559C121.223 21.7432 122.205 21.6368 123.273 21.6368H125.387C126.07 20.4879 126.775 19.2114 127.5 17.8073C128.269 16.3606 129.016 14.9351 129.742 13.531C130.511 12.1268 131.216 10.8929 131.856 9.82911C133.607 6.85059 135.529 4.46778 137.621 2.68067C139.756 0.893555 142.126 0 144.731 0C145.287 0 145.799 0.170201 146.269 0.510604C146.738 0.808457 146.952 1.27651 146.909 1.91476L146.781 4.21248C146.781 4.25503 146.738 4.31885 146.653 4.40395C146.568 4.4465 146.504 4.46777 146.461 4.46777C146.418 4.46777 146.354 4.42523 146.269 4.34013C146.141 3.57422 145.756 2.99979 145.116 2.61684C144.475 2.19134 143.685 1.97859 142.746 1.97859C142.447 1.97859 142.105 1.99986 141.721 2.04241C141.379 2.08496 141.038 2.17006 140.696 2.29771C139.5 2.72322 138.369 3.5955 137.301 4.91455C136.233 6.19106 135.08 7.89307 133.842 10.0206C133.415 10.829 132.86 11.8928 132.177 13.2119C131.493 14.4884 130.767 15.8712 129.999 17.3605C129.273 18.8498 128.568 20.2965 127.885 21.7006C127.244 23.1048 126.689 24.2962 126.219 25.2748C126.006 25.7854 125.643 26.5726 125.13 27.6364C124.618 28.6576 124.063 29.7852 123.465 31.0191C122.91 32.2105 122.419 33.3168 121.992 34.338C121.607 35.3593 121.415 36.0826 121.415 36.5081C121.415 37.1038 121.671 37.4017 122.184 37.4017C122.696 37.4017 123.38 37.1038 124.234 36.5081C125.088 35.8699 125.963 35.104 126.86 34.2104C127.799 33.2743 128.632 32.3807 129.358 31.5297C130.127 30.6787 130.661 30.0405 130.959 29.615C131.088 29.7426 131.152 29.8915 131.152 30.0617C131.152 30.3596 131.024 30.6575 130.767 30.9553C130.554 31.2532 130.362 31.5085 130.191 31.7212C129.422 32.7424 128.461 33.8487 127.308 35.0401C126.198 36.189 124.981 37.1889 123.657 38.0399C122.333 38.8484 120.988 39.2526 119.622 39.2526ZM112.704 37.0187C113.216 37.0187 113.921 36.657 114.817 35.9337C115.757 35.1678 116.76 34.2317 117.828 33.1254C118.896 31.9765 119.899 30.7851 120.839 29.5511C121.778 28.2746 122.547 27.1258 123.145 26.1046C123.785 25.0408 124.106 24.2324 124.106 23.6792C124.106 23.2112 123.956 22.892 123.657 22.7218C123.401 22.5516 123.059 22.4665 122.632 22.4665C121.949 22.4665 121.202 22.7218 120.39 23.2324C119.622 23.7005 119.002 24.1685 118.533 24.6366C118.02 25.1046 117.401 25.8493 116.675 26.8705C115.992 27.8491 115.309 28.9342 114.625 30.1256C113.942 31.317 113.366 32.4658 112.896 33.5721C112.426 34.6785 112.191 35.572 112.191 36.2528C112.191 36.7634 112.362 37.0187 112.704 37.0187Z" fill="black"/>
<path d="M138.45 39.2526C138.023 39.2526 137.66 39.1675 137.362 38.9973C137.063 38.8271 136.913 38.508 136.913 38.0399C136.913 37.4442 137.063 36.7634 137.362 35.9975C137.66 35.2316 138.002 34.487 138.386 33.7636C138.771 32.9977 139.112 32.3807 139.411 31.9127C137.917 33.487 136.358 34.9763 134.735 36.3805C133.924 37.0613 133.027 37.6995 132.045 38.2952C131.063 38.8909 130.016 39.1888 128.906 39.1888C128.479 39.1888 128.18 39.0611 128.009 38.8058C127.839 38.508 127.753 38.1676 127.753 37.7846C127.753 37.5719 127.775 37.4229 127.817 37.3378C128.031 35.6784 128.565 33.9551 129.419 32.168C130.273 30.3809 131.319 28.7001 132.557 27.1258C133.796 25.5514 135.056 24.2749 136.337 23.2963C137.789 22.19 139.39 21.6368 141.141 21.6368H148.507C148.721 21.6368 148.827 21.7219 148.827 21.8921C148.827 22.2325 148.635 22.4027 148.251 22.4027C147.824 22.4027 147.397 22.6793 146.97 23.2324C146.543 23.743 146.223 24.1685 146.009 24.5089C145.71 24.977 145.24 25.7642 144.6 26.8705C143.959 27.9768 143.297 29.1895 142.614 30.5085C141.974 31.785 141.418 32.9764 140.949 34.0827C140.479 35.1891 140.244 35.9975 140.244 36.5081C140.244 37.1038 140.543 37.4017 141.141 37.4017C141.781 37.4017 142.507 37.1038 143.319 36.5081C144.13 35.9124 144.941 35.189 145.753 34.338C146.607 33.4445 147.376 32.5722 148.059 31.7212C148.785 30.8277 149.361 30.1256 149.788 29.615C150.045 29.8703 150.023 30.2319 149.724 30.7C149.468 31.1255 149.233 31.4659 149.02 31.7212C148.166 32.8275 147.183 33.9764 146.073 35.1678C144.963 36.3166 143.746 37.2953 142.422 38.1037C141.141 38.8696 139.817 39.2526 138.45 39.2526ZM131.532 37.0187C132.045 37.0187 132.75 36.657 133.646 35.9337C134.586 35.1678 135.589 34.2317 136.657 33.1254C137.725 31.9765 138.728 30.7851 139.668 29.5511C140.607 28.2746 141.376 27.1258 141.974 26.1046C142.614 25.0408 142.934 24.2324 142.934 23.6792C142.934 23.2112 142.785 22.892 142.486 22.7218C142.23 22.5516 141.888 22.4665 141.461 22.4665C140.778 22.4665 140.031 22.7218 139.219 23.2324C138.45 23.7005 137.831 24.1685 137.362 24.6366C136.849 25.1046 136.23 25.8493 135.504 26.8705C134.821 27.8491 134.137 28.9342 133.454 30.1256C132.771 31.317 132.194 32.4658 131.725 33.5721C131.255 34.6785 131.02 35.572 131.02 36.2528C131.02 36.7634 131.191 37.0187 131.532 37.0187Z" fill="black"/>
<path d="M171.368 41.2312C169.873 41.2312 168.293 40.9972 166.628 40.5291C165.005 40.1036 163.553 39.3802 162.272 38.359C161.034 37.3378 160.201 35.9762 159.774 34.2742C159.731 34.0615 159.689 33.8274 159.646 33.5721C159.646 33.3168 159.646 33.0615 159.646 32.8062C159.646 31.4872 159.945 30.2107 160.543 28.9767C161.14 27.7428 161.866 26.8067 162.72 26.1684H162.785C162.87 26.1684 162.977 26.2748 163.105 26.4875C163.276 26.6577 163.276 26.7854 163.105 26.8705C162.678 27.296 162.357 27.7853 162.144 28.3385C161.973 28.8491 161.888 29.4022 161.888 29.9979C161.888 30.8064 162.016 31.6361 162.272 32.4871C162.571 33.2956 162.934 33.9976 163.361 34.5933C164.429 36.0826 165.902 37.274 167.781 38.1676C169.703 39.0186 171.581 39.4441 173.418 39.4441C175.937 39.4441 177.88 38.6994 179.247 37.2102C180.656 35.7209 181.361 33.8913 181.361 31.7212C181.361 30.4021 181.104 29.0831 180.592 27.764C179.909 25.9344 178.991 24.1473 177.838 22.4027C176.727 20.6156 175.702 18.871 174.763 17.169C173.952 15.6372 173.546 14.0841 173.546 12.5098C173.546 10.8503 174.058 9.25468 175.083 7.72287C176.108 6.36126 177.453 5.27623 179.119 4.46777C180.827 3.61677 182.556 3.19127 184.307 3.19127C185.503 3.19127 186.656 3.40402 187.766 3.82952C188.876 4.25502 189.88 4.9571 190.777 5.93576C191.033 6.31871 191.161 6.80804 191.161 7.40374C191.161 8.25475 190.99 8.91428 190.649 9.38233C190.264 9.93548 189.837 10.6588 189.368 11.5524C188.898 12.4459 188.62 13.0629 188.535 13.4033C188.449 13.4459 188.236 13.531 187.894 13.6586C187.595 13.7437 187.403 13.7225 187.318 13.5948C187.489 13.2544 187.723 12.6374 188.022 11.7439C188.321 10.8503 188.471 10.0419 188.471 9.3185C188.471 8.85045 188.449 8.33985 188.407 7.7867C188.407 7.19099 188.129 6.68039 187.574 6.25489C187.062 5.78683 186.4 5.38261 185.588 5.0422C184.777 4.7018 183.795 4.5316 182.642 4.5316C180.293 4.5316 178.499 5.21241 177.261 6.57401C176.023 7.93562 175.403 9.42488 175.403 11.0418C175.403 11.8502 175.574 12.6587 175.916 13.4672C176.556 14.999 177.453 16.4457 178.606 17.8073C179.759 19.1689 180.891 20.573 182.001 22.0198C183.154 23.4239 184.051 24.9557 184.692 26.6152C185.119 27.7215 185.332 28.8491 185.332 29.9979C185.332 31.6574 184.905 33.1679 184.051 34.5295C183.24 35.8911 182.129 37.0825 180.72 38.1037C179.354 39.0824 177.859 39.8483 176.236 40.4015C174.613 40.9546 172.991 41.2312 171.368 41.2312Z" fill="black"/>
<path d="M197.001 39.2526C196.574 39.2526 196.211 39.1675 195.912 38.9973C195.613 38.8271 195.464 38.508 195.464 38.0399C195.464 37.4442 195.613 36.7634 195.912 35.9975C196.211 35.2316 196.553 34.487 196.937 33.7636C197.321 32.9977 197.663 32.3807 197.962 31.9127C196.467 33.487 194.909 34.9763 193.286 36.3805C192.475 37.0613 191.578 37.6995 190.596 38.2952C189.613 38.8909 188.567 39.1888 187.457 39.1888C187.03 39.1888 186.731 39.0611 186.56 38.8058C186.389 38.508 186.304 38.1676 186.304 37.7846C186.304 37.5719 186.325 37.4229 186.368 37.3378C186.581 35.6784 187.115 33.9551 187.969 32.168C188.823 30.3809 189.87 28.7001 191.108 27.1258C192.346 25.5514 193.606 24.2749 194.887 23.2963C196.339 22.19 197.941 21.6368 199.692 21.6368H207.058C207.271 21.6368 207.378 21.7219 207.378 21.8921C207.378 22.2325 207.186 22.4027 206.802 22.4027C206.375 22.4027 205.948 22.6793 205.521 23.2324C205.094 23.743 204.773 24.1685 204.56 24.5089C204.261 24.977 203.791 25.7642 203.151 26.8705C202.51 27.9768 201.848 29.1895 201.165 30.5085C200.524 31.785 199.969 32.9764 199.499 34.0827C199.03 35.1891 198.795 35.9975 198.795 36.5081C198.795 37.1038 199.094 37.4017 199.692 37.4017C200.332 37.4017 201.058 37.1038 201.869 36.5081C202.681 35.9124 203.492 35.189 204.304 34.338C205.158 33.4445 205.926 32.5722 206.61 31.7212C207.335 30.8277 207.912 30.1256 208.339 29.615C208.595 29.8703 208.574 30.2319 208.275 30.7C208.019 31.1255 207.784 31.4659 207.57 31.7212C206.716 32.8275 205.734 33.9764 204.624 35.1678C203.513 36.3166 202.296 37.2953 200.973 38.1037C199.692 38.8696 198.368 39.2526 197.001 39.2526ZM190.083 37.0187C190.596 37.0187 191.3 36.657 192.197 35.9337C193.137 35.1678 194.14 34.2317 195.208 33.1254C196.275 31.9765 197.279 30.7851 198.218 29.5511C199.158 28.2746 199.926 27.1258 200.524 26.1046C201.165 25.0408 201.485 24.2324 201.485 23.6792C201.485 23.2112 201.336 22.892 201.037 22.7218C200.78 22.5516 200.439 22.4665 200.012 22.4665C199.329 22.4665 198.581 22.7218 197.77 23.2324C197.001 23.7005 196.382 24.1685 195.912 24.6366C195.4 25.1046 194.781 25.8493 194.055 26.8705C193.371 27.8491 192.688 28.9342 192.005 30.1256C191.322 31.317 190.745 32.4658 190.275 33.5721C189.806 34.6785 189.571 35.572 189.571 36.2528C189.571 36.7634 189.742 37.0187 190.083 37.0187Z" fill="black"/>
<path d="M207.503 40.0185C207.332 40.0185 207.332 39.827 207.503 39.4441C207.716 39.0611 207.908 38.6356 208.079 38.1676C208.293 37.6995 208.506 37.1889 208.72 36.6358C209.147 35.6146 209.617 34.4657 210.129 33.1892C210.642 31.9127 211.133 30.6787 211.602 29.4873C212.072 28.2534 212.478 27.2109 212.819 26.3599C213.204 25.4663 213.46 24.8919 213.588 24.6366C212.99 25.2748 212.264 26.0833 211.41 27.062C210.599 27.9981 209.83 28.9129 209.104 29.8064C208.378 30.7 207.823 31.4021 207.439 31.9127C207.311 32.0829 207.204 32.168 207.118 32.168C207.033 32.168 206.99 32.0616 206.99 31.8489C206.99 31.5085 207.097 31.1893 207.311 30.8915C208.122 29.8703 209.019 28.7214 210.001 27.4449C211.026 26.1684 211.944 24.9983 212.755 23.9345C213.567 22.8282 214.079 22.1049 214.293 21.7644C214.762 21.6793 215.446 21.5517 216.342 21.3815C217.282 21.2113 217.922 20.9773 218.264 20.6794C218.392 20.5518 218.52 20.4879 218.648 20.4879C218.734 20.4879 218.777 20.573 218.777 20.7432C218.819 20.8709 218.777 21.0198 218.648 21.19C218.392 21.4879 217.944 22.19 217.303 23.2963C216.705 24.36 216.044 25.5514 215.318 26.8705C214.634 28.1895 213.994 29.3809 213.396 30.4447C213.908 29.7639 214.464 29.1044 215.061 28.4661C215.659 27.8279 216.236 27.2109 216.791 26.6152C217.303 26.1046 218.008 25.4663 218.905 24.7004C219.801 23.9345 220.741 23.2324 221.723 22.5942C222.705 21.9559 223.559 21.5943 224.285 21.5091C224.456 21.4666 224.606 21.4453 224.734 21.4453C224.905 21.4453 225.033 21.4453 225.118 21.4453C226.058 21.4453 226.527 21.7857 226.527 22.4665C226.527 22.9771 226.25 23.6579 225.695 24.5089C225.396 24.977 224.926 25.7642 224.285 26.8705C223.688 27.9342 223.068 29.1044 222.428 30.3809C221.83 31.6148 221.296 32.785 220.826 33.8913C220.399 34.955 220.186 35.7422 220.186 36.2528C220.186 36.8485 220.485 37.1464 221.083 37.1464C221.809 37.1464 222.599 36.7847 223.453 36.0613C224.349 35.338 225.31 34.4231 226.335 33.3168C227.36 32.168 228.385 30.9553 229.41 29.6788C229.495 29.7639 229.538 29.9128 229.538 30.1256C229.538 30.4234 229.431 30.7213 229.218 31.0191C229.047 31.2744 228.876 31.5085 228.705 31.7212C228.278 32.2744 227.702 32.9764 226.976 33.8274C226.292 34.6359 225.588 35.4444 224.862 36.2528C224.136 37.0187 223.474 37.6357 222.876 38.1037C222.449 38.4016 221.894 38.7207 221.211 39.0611C220.527 39.4015 219.844 39.5717 219.161 39.5717C218.392 39.5717 217.858 39.3803 217.559 38.9973C217.261 38.5718 217.111 38.0612 217.111 37.4655C217.111 36.7847 217.239 36.0613 217.495 35.2954C217.752 34.5295 218.029 33.8062 218.328 33.1254C218.67 32.402 218.926 31.8701 219.097 31.5297C219.866 30.0405 220.57 28.6363 221.211 27.3173C221.851 25.9982 222.3 25.0621 222.556 24.5089C222.684 24.2536 222.748 24.0409 222.748 23.8707C222.748 23.5728 222.513 23.5516 222.043 23.8069C221.574 24.0622 220.997 24.4451 220.314 24.9557C219.673 25.4663 219.076 25.9769 218.52 26.4875C217.965 26.9556 217.602 27.2747 217.431 27.4449C215.851 29.1044 214.464 30.9553 213.268 32.9977C212.115 34.9976 211.133 37.0613 210.321 39.1888C209.766 39.2313 209.211 39.3803 208.656 39.6356C208.101 39.8909 207.716 40.0185 207.503 40.0185Z" fill="black"/>
<path d="M230.824 39.2526C230.397 39.2526 230.034 39.1675 229.735 38.9973C229.436 38.8271 229.287 38.508 229.287 38.0399C229.287 37.4442 229.436 36.7421 229.735 35.9337C230.077 35.1252 230.44 34.3168 230.824 33.5083C231.208 32.6999 231.529 32.0403 231.785 31.5297C231.998 31.1468 232.276 30.5511 232.618 29.7426C233.002 28.8916 233.386 28.0193 233.771 27.1258C234.198 26.1897 234.539 25.4025 234.795 24.7642C235.094 24.126 235.244 23.8069 235.244 23.8069C234.859 24.2324 234.347 24.8281 233.707 25.594C233.109 26.3599 232.447 27.1683 231.721 28.0193C231.038 28.8278 230.397 29.5937 229.799 30.317C229.244 31.0404 228.838 31.5723 228.582 31.9127C228.454 32.0829 228.347 32.168 228.262 32.168C228.176 32.168 228.134 32.0616 228.134 31.8489C228.134 31.5085 228.24 31.1893 228.454 30.8915C228.966 30.2532 229.586 29.4873 230.312 28.5938C231.038 27.6577 231.763 26.7216 232.489 25.7854C233.258 24.8493 233.92 24.0196 234.475 23.2963C234.134 23.2963 233.685 23.3175 233.13 23.3601C232.618 23.4026 232.148 23.4665 231.721 23.5516C231.294 23.5941 231.059 23.6154 231.016 23.6154C230.803 23.6154 230.824 23.4452 231.08 23.1048C231.336 22.7644 231.678 22.424 232.105 22.0836C232.532 21.7432 232.852 21.573 233.066 21.573C233.109 21.573 233.45 21.5943 234.091 21.6368C234.731 21.6368 235.201 21.6368 235.5 21.6368C236.354 20.4879 237.187 19.1689 237.998 17.6796C238.852 16.1904 239.685 14.5522 240.496 12.7651C240.838 12.7225 241.415 12.4885 242.226 12.063C243.08 11.5949 243.742 11.1269 244.212 10.6588C244.425 10.4461 244.596 10.3397 244.724 10.3397C244.98 10.3397 244.98 10.5099 244.724 10.8503C244.425 11.1907 243.913 11.9141 243.187 13.0204C242.461 14.0841 241.649 15.3819 240.753 16.9137C239.856 18.403 239.002 19.9773 238.19 21.6368H243.379C243.849 21.6368 244.083 21.7006 244.083 21.8283C244.083 21.9985 243.763 22.1687 243.123 22.3389C242.397 22.5516 241.628 22.6793 240.817 22.7218C240.048 22.7644 239.322 22.8495 238.639 22.9771C237.998 23.1048 237.528 23.3814 237.23 23.8069C236.973 24.1047 236.61 24.743 236.141 25.7216C235.671 26.7003 235.158 27.8279 234.603 29.1044C234.091 30.3383 233.642 31.5936 233.258 32.8701C232.874 34.104 232.639 35.1465 232.553 35.9975V36.2528C232.553 36.5932 232.66 36.8698 232.874 37.0825C233.087 37.2953 233.301 37.4017 233.514 37.4017C234.069 37.4017 234.774 37.0613 235.628 36.3805C236.525 35.6997 237.443 34.8912 238.383 33.9551C239.322 32.9764 240.133 32.0829 240.817 31.2744C241.116 30.934 241.372 30.6149 241.585 30.317C241.842 30.0192 241.991 29.8277 242.034 29.7426C242.119 29.9128 242.162 30.0405 242.162 30.1256C242.162 30.3809 242.076 30.6575 241.906 30.9553C241.777 31.2532 241.628 31.5085 241.457 31.7212C240.646 32.785 239.664 33.9125 238.511 35.104C237.358 36.2528 236.119 37.2315 234.795 38.0399C233.514 38.8484 232.191 39.2526 230.824 39.2526Z" fill="black"/>
<path d="M254.284 14.6798C253.686 14.6798 253.259 14.4884 253.003 14.1054C252.832 13.8927 252.747 13.6161 252.747 13.2757C252.747 12.5949 253.067 12.0417 253.707 11.6162C254.177 11.3609 254.604 11.2333 254.988 11.2333C255.629 11.2333 256.077 11.4247 256.334 11.8077C256.504 12.0204 256.59 12.297 256.59 12.6374C256.59 13.3182 256.248 13.8714 255.565 14.2969C255.181 14.5522 254.754 14.6798 254.284 14.6798ZM243.138 39.2526C242.711 39.2526 242.348 39.1675 242.049 38.9973C241.793 38.8271 241.665 38.508 241.665 38.0399C241.665 37.4442 241.814 36.7421 242.113 35.9337C242.455 35.1252 242.818 34.3168 243.202 33.5083C243.629 32.6999 243.95 32.0403 244.163 31.5297C244.462 30.934 244.825 30.1681 245.252 29.232C245.722 28.2534 246.149 27.3385 246.533 26.4875C246.96 25.594 247.259 24.977 247.43 24.6366C246.832 25.2748 246.106 26.0833 245.252 27.062C244.441 27.9981 243.672 28.9129 242.946 29.8064C242.22 30.7 241.665 31.4021 241.281 31.9127C241.152 32.0829 241.046 32.168 240.96 32.168C240.875 32.168 240.832 32.0616 240.832 31.8489C240.832 31.5085 240.939 31.1893 241.152 30.8915C241.964 29.8703 242.861 28.7214 243.843 27.4449C244.868 26.1684 245.786 24.9983 246.597 23.9345C247.409 22.8282 247.921 22.1049 248.134 21.7644C248.604 21.6793 249.288 21.5517 250.184 21.3815C251.124 21.2113 251.764 20.9773 252.106 20.6794C252.234 20.5518 252.362 20.4879 252.49 20.4879C252.576 20.4879 252.618 20.573 252.618 20.7432C252.661 20.8709 252.618 21.0198 252.49 21.19C252.234 21.4879 251.786 22.2112 251.145 23.3601C250.505 24.5089 249.821 25.7854 249.095 27.1896C248.412 28.5512 247.771 29.7852 247.174 30.8915C246.576 32.0403 246.063 33.1466 245.636 34.2104C245.209 35.2742 244.996 36.0401 244.996 36.5081C244.996 37.1038 245.295 37.4017 245.893 37.4017C246.448 37.4017 247.152 37.0613 248.006 36.3805C248.903 35.6997 249.8 34.8912 250.697 33.9551C251.593 32.9764 252.383 32.0829 253.067 31.2744C253.28 31.0191 253.537 30.7213 253.835 30.3809C254.177 29.9979 254.391 29.7639 254.476 29.6788C254.561 29.7639 254.604 29.9128 254.604 30.1256C254.561 30.4234 254.455 30.7213 254.284 31.0191C254.113 31.2744 253.942 31.5085 253.771 31.7212C252.875 32.8275 251.892 33.9764 250.825 35.1678C249.757 36.3166 248.583 37.2953 247.302 38.1037C246.021 38.8696 244.633 39.2526 243.138 39.2526Z" fill="black"/>
<path d="M261.995 39.2526C261.568 39.2526 261.205 39.1675 260.906 38.9973C260.607 38.8271 260.458 38.508 260.458 38.0399C260.458 37.4442 260.607 36.7634 260.906 35.9975C261.205 35.2316 261.547 34.487 261.931 33.7636C262.315 32.9977 262.657 32.3807 262.956 31.9127C261.461 33.487 259.903 34.9763 258.28 36.3805C257.468 37.0613 256.572 37.6995 255.589 38.2952C254.607 38.8909 253.561 39.1888 252.451 39.1888C252.024 39.1888 251.725 39.0611 251.554 38.8058C251.383 38.508 251.298 38.1676 251.298 37.7846C251.298 37.5719 251.319 37.4229 251.362 37.3378C251.575 35.6784 252.109 33.9551 252.963 32.168C253.817 30.3809 254.863 28.7001 256.102 27.1258C257.34 25.5514 258.6 24.2749 259.881 23.2963C261.333 22.19 262.934 21.6368 264.685 21.6368H272.052C272.265 21.6368 272.372 21.7219 272.372 21.8921C272.372 22.2325 272.18 22.4027 271.796 22.4027C271.368 22.4027 270.941 22.6793 270.514 23.2324C270.087 23.743 269.767 24.1685 269.554 24.5089C269.255 24.977 268.785 25.7642 268.144 26.8705C267.504 27.9768 266.842 29.1895 266.159 30.5085C265.518 31.785 264.963 32.9764 264.493 34.0827C264.023 35.1891 263.789 35.9975 263.789 36.5081C263.789 37.1038 264.087 37.4017 264.685 37.4017C265.326 37.4017 266.052 37.1038 266.863 36.5081C267.675 35.9124 268.486 35.189 269.297 34.338C270.151 33.4445 270.92 32.5722 271.603 31.7212C272.329 30.8277 272.906 30.1256 273.333 29.615C273.589 29.8703 273.568 30.2319 273.269 30.7C273.013 31.1255 272.778 31.4659 272.564 31.7212C271.71 32.8275 270.728 33.9764 269.618 35.1678C268.507 36.3166 267.29 37.2953 265.966 38.1037C264.685 38.8696 263.362 39.2526 261.995 39.2526ZM255.077 37.0187C255.589 37.0187 256.294 36.657 257.191 35.9337C258.13 35.1678 259.134 34.2317 260.201 33.1254C261.269 31.9765 262.273 30.7851 263.212 29.5511C264.152 28.2746 264.92 27.1258 265.518 26.1046C266.159 25.0408 266.479 24.2324 266.479 23.6792C266.479 23.2112 266.329 22.892 266.03 22.7218C265.774 22.5516 265.433 22.4665 265.006 22.4665C264.322 22.4665 263.575 22.7218 262.764 23.2324C261.995 23.7005 261.376 24.1685 260.906 24.6366C260.394 25.1046 259.774 25.8493 259.048 26.8705C258.365 27.8491 257.682 28.9342 256.999 30.1256C256.315 31.317 255.739 32.4658 255.269 33.5721C254.799 34.6785 254.565 35.572 254.565 36.2528C254.565 36.7634 254.735 37.0187 255.077 37.0187Z" fill="black"/>
<path d="M260.646 61.4C259.024 61.4 257.465 61.0171 255.97 60.2511C254.433 59.5278 253.301 58.4002 252.575 56.8684C252.276 56.3153 252.084 55.7195 251.999 55.0813C251.913 54.4856 251.871 53.8899 251.871 53.2942V52.6559C251.871 52.3155 251.913 51.9964 251.999 51.6986C252.084 51.4007 252.319 51.2518 252.703 51.2518C252.789 51.2518 252.832 51.2943 252.832 51.3794C252.832 51.6347 252.81 51.89 252.768 52.1453C252.725 52.4006 252.703 52.6772 252.703 52.9751C252.703 54.9324 253.344 56.4216 254.625 57.4428C255.864 58.464 257.422 58.9746 259.301 58.9746C260.07 58.9746 260.86 58.8895 261.671 58.7193C262.483 58.5491 263.23 58.3151 263.913 58.0173C266.646 56.8684 269.016 55.2089 271.023 53.0389C273.073 50.8688 274.845 48.4222 276.34 45.699C277.877 42.9757 279.222 40.1887 280.375 37.3378C281.571 34.4444 282.681 31.7212 283.706 29.1682C282.81 30.6149 281.827 31.9127 280.76 33.0615C279.692 34.1678 278.496 35.2742 277.173 36.3805C276.361 37.0613 275.465 37.6995 274.482 38.2952C273.543 38.8909 272.518 39.1888 271.408 39.1888C270.981 39.1888 270.682 39.0611 270.511 38.8058C270.34 38.508 270.255 38.1676 270.255 37.7846V37.3378C270.468 35.6784 271.002 33.9551 271.856 32.168C272.753 30.3809 273.82 28.7001 275.059 27.1258C276.297 25.5514 277.557 24.2749 278.838 23.2963C280.29 22.19 281.891 21.6368 283.642 21.6368H291.009C291.222 21.6368 291.329 21.7219 291.329 21.8921C291.329 22.2325 291.137 22.4027 290.752 22.4027C290.283 22.4027 289.834 22.5942 289.407 22.9771C288.98 23.3601 288.66 23.7218 288.446 24.0622C288.019 24.743 287.464 25.7854 286.781 27.1896C286.098 28.5938 285.35 30.2107 284.539 32.0403C283.728 33.8274 282.916 35.6571 282.105 37.5293C281.294 39.359 280.546 41.0823 279.863 42.6992C278.838 45.1245 277.664 47.4861 276.34 49.7838C275.059 52.1241 273.521 54.209 271.728 56.0387C269.977 57.9109 267.885 59.3789 265.45 60.4426C263.999 61.0809 262.397 61.4 260.646 61.4ZM274.034 37.0187C274.546 37.0187 275.251 36.657 276.148 35.9337C277.045 35.1678 278.027 34.2317 279.094 33.1254C280.162 31.9765 281.165 30.7851 282.105 29.5511C283.044 28.2746 283.813 27.1258 284.411 26.1046C285.051 25.0408 285.372 24.2324 285.372 23.6792C285.372 23.2112 285.222 22.892 284.923 22.7218C284.667 22.5516 284.326 22.4665 283.898 22.4665C283.215 22.4665 282.489 22.7218 281.721 23.2324C280.952 23.7005 280.333 24.1685 279.863 24.6366C279.351 25.1046 278.731 25.8493 278.005 26.8705C277.322 27.8491 276.618 28.9342 275.892 30.1256C275.208 31.317 274.632 32.4658 274.162 33.5721C273.692 34.6785 273.457 35.572 273.457 36.2528C273.457 36.7634 273.65 37.0187 274.034 37.0187Z" fill="black"/>
<path d="M290.089 39.1888C289.406 39.1888 288.787 39.0611 288.232 38.8058C287.719 38.508 287.463 37.891 287.463 36.9549C287.463 35.4656 287.847 33.9764 288.616 32.4871C289.385 30.9553 290.175 29.615 290.986 28.4661C291.712 27.4875 292.523 26.5726 293.42 25.7216C294.36 24.8281 295.363 24.0622 296.431 23.4239C297.114 22.9984 298.032 22.5516 299.185 22.0836C300.381 21.573 301.384 21.3177 302.196 21.3177C302.879 21.3177 303.477 21.5091 303.989 21.8921C304.502 22.2325 304.758 22.8708 304.758 23.8069C304.758 25.2536 304.374 26.7428 303.605 28.2746C302.879 29.7639 302.11 31.083 301.299 32.2318C300.915 32.7424 300.53 33.2317 300.146 33.6998C299.762 34.1253 299.335 34.5721 298.865 35.0401C300.445 35.0401 301.897 34.5933 303.221 33.6998C304.545 32.7637 305.698 31.6361 306.68 30.317L306.808 30.1894C306.936 30.1894 307 30.3171 307 30.5724C307 30.8702 306.915 31.1468 306.744 31.4021C305.89 32.5935 304.822 33.6572 303.541 34.5933C302.26 35.4869 300.808 35.9337 299.185 35.9337C299.014 35.9337 298.844 35.9337 298.673 35.9337C298.502 35.9337 298.331 35.9124 298.16 35.8699C295.769 38.0825 293.079 39.1888 290.089 39.1888ZM291.755 38.1037C292.353 38.1037 292.993 37.891 293.676 37.4655C294.402 37.04 294.958 36.6358 295.342 36.2528C296.068 35.5295 296.73 34.7635 297.328 33.9551C297.925 33.1041 298.481 32.2531 298.993 31.4021C299.591 30.3809 300.189 29.1682 300.787 27.764C301.384 26.3599 301.683 25.0408 301.683 23.8069C301.683 22.8282 301.342 22.3389 300.659 22.3389C300.103 22.3389 299.42 22.5729 298.609 23.041C297.84 23.509 297.264 23.9345 296.879 24.3175C295.427 25.8067 294.21 27.4236 293.228 29.1682C292.673 30.1469 292.075 31.2957 291.435 32.6148C290.794 33.9338 290.474 35.1465 290.474 36.2528C290.474 36.423 290.474 36.5932 290.474 36.7634C290.516 36.8911 290.559 37.04 290.602 37.2102C290.773 37.8059 291.157 38.1037 291.755 38.1037Z" fill="black"/>
</svg>
