<svg width="50" height="50" viewBox="0 0 50 50" fill="#ffffff" xmlns="http://www.w3.org/2000/svg">
<path d="M46.25 0H3.75C1.66667 0 0 1.64789 0 3.50177V45.729C0 47.5829 1.66667 49.2308 3.75 49.2308H46.25C48.3333 49.2308 50 47.5829 50 45.729V3.50177C50 1.64789 48.3333 0 46.25 0ZM14.7917 42.0212H7.5V18.5388H14.7917V42.0212ZM11.25 15.243C8.95833 15.243 6.875 13.3891 6.875 10.9173C6.875 8.44545 8.75 6.59157 11.25 6.59157C13.5417 6.59157 15.625 8.44545 15.625 10.9173C15.625 13.3891 13.5417 15.243 11.25 15.243ZM42.7083 41.8153H35.4167V30.28C35.4167 27.6022 35.4167 23.8944 31.4583 23.8944C27.5 23.8944 27.0833 26.9842 27.0833 29.868V41.6093H19.7917V18.5388H26.6667V21.6286H26.875C27.9167 19.7747 30.4167 17.7148 33.9583 17.7148C41.4583 17.7148 42.9167 22.6585 42.9167 29.0441V41.8153H42.7083Z" fill="#ffffff"/>
</svg>
