<svg width="38" height="38" viewBox="0 0 38 38" fill="none" xmlns="http://www.w3.org/2000/svg">
<path d="M37.5661 22.7626C37.3749 22.571 37.1352 22.4351 36.8726 22.3694C36.61 22.3037 36.3345 22.3108 36.0756 22.3899C33.2337 23.2493 30.2119 23.3213 27.3322 22.5984C24.4526 21.8755 21.823 20.3847 19.7236 18.2849C17.6242 16.1851 16.1337 13.5549 15.411 10.6747C14.6882 7.7944 14.7602 4.77198 15.6194 1.92944C15.6991 1.67043 15.7068 1.39458 15.6415 1.13155C15.5762 0.868517 15.4404 0.628266 15.2488 0.43663C15.0573 0.244993 14.8171 0.109224 14.5541 0.0439221C14.2911 -0.0213795 14.0153 -0.0137424 13.7563 0.0660119C9.82723 1.26987 6.37781 3.68255 3.89896 6.96071C1.73114 9.83945 0.408827 13.2658 0.0805769 16.8547C-0.247673 20.4437 0.431146 24.0531 2.04077 27.2775C3.6504 30.5019 6.12705 33.2134 9.1925 35.1076C12.2579 37.0017 15.7907 38.0033 19.3939 37.9999C23.5976 38.0127 27.6894 36.6459 31.0417 34.1091C34.3192 31.6297 36.7314 28.1796 37.935 24.2496C38.0138 23.9916 38.0211 23.717 37.9561 23.4551C37.8912 23.1932 37.7564 22.9539 37.5661 22.7626ZM29.2494 31.7276C26.0926 34.1058 22.1831 35.2634 18.2406 34.9873C14.2981 34.7112 10.5881 33.02 7.79336 30.2249C4.99867 27.4299 3.30747 23.7192 3.0311 19.7759C2.75472 15.8326 3.91177 11.9222 6.28925 8.76452C7.83819 6.71858 9.84071 5.0601 12.1392 3.91959C12.0083 4.83868 11.9423 5.76587 11.9417 6.69424C11.9472 11.8324 13.9903 16.7585 17.6227 20.3918C21.2552 24.025 26.1803 26.0685 31.3174 26.0739C32.2475 26.0737 33.1763 26.0076 34.0971 25.8764C32.9558 28.1758 31.2963 30.1788 29.2494 31.7276Z" fill="black"/>
</svg>
