<svg width="42" height="42" viewBox="0 0 42 42" fill="none" xmlns="http://www.w3.org/2000/svg">
<path d="M21 2V6.22128M21 35.7787V40M6.22222 20.9958H2M40 20.9958H35.7778M35.7778 6.22128L31.5556 10.4426M6.22222 6.22128L10.4444 10.4426M10.4444 31.549L6.22222 35.7703M35.7778 35.7703L31.5556 31.549M29.4444 20.9958C29.4444 23.2349 28.5548 25.3823 26.9711 26.9656C25.3875 28.5489 23.2396 29.4383 21 29.4383C18.7604 29.4383 16.6125 28.5489 15.0289 26.9656C13.4452 25.3823 12.5556 23.2349 12.5556 20.9958C12.5556 18.7567 13.4452 16.6093 15.0289 15.026C16.6125 13.4427 18.7604 12.5532 21 12.5532C23.2396 12.5532 25.3875 13.4427 26.9711 15.026C28.5548 16.6093 29.4444 18.7567 29.4444 20.9958Z" stroke="white" stroke-width="3" stroke-linecap="round" stroke-linejoin="round"/>
</svg>
