<svg width="38" height="38" viewBox="0 0 38 38" fill="none" xmlns="http://www.w3.org/2000/svg">
<path d="M17.7333 5.06667V1.26667C17.7333 0.930726 17.8668 0.608544 18.1043 0.370998C18.3419 0.133452 18.6641 0 19 0C19.3359 0 19.6581 0.133452 19.8957 0.370998C20.1332 0.608544 20.2667 0.930726 20.2667 1.26667V5.06667C20.2667 5.40261 20.1332 5.72479 19.8957 5.96233C19.6581 6.19988 19.3359 6.33333 19 6.33333C18.6641 6.33333 18.3419 6.19988 18.1043 5.96233C17.8668 5.72479 17.7333 5.40261 17.7333 5.06667ZM29.1333 19C29.1333 21.0042 28.539 22.9634 27.4256 24.6298C26.3121 26.2962 24.7295 27.595 22.8779 28.362C21.0262 29.1289 18.9888 29.3296 17.0231 28.9386C15.0574 28.5476 13.2518 27.5825 11.8347 26.1653C10.4175 24.7482 9.45237 22.9426 9.06138 20.9769C8.67038 19.0112 8.87105 16.9738 9.63802 15.1221C10.405 13.2705 11.7038 11.6879 13.3702 10.5744C15.0366 9.46098 16.9958 8.86667 19 8.86667C21.6866 8.8696 24.2624 9.93816 26.1621 11.8379C28.0618 13.7376 29.1304 16.3134 29.1333 19ZM26.6 19C26.6 17.4969 26.1543 16.0275 25.3192 14.7777C24.4841 13.5279 23.2971 12.5537 21.9084 11.9785C20.5197 11.4033 18.9916 11.2528 17.5173 11.546C16.0431 11.8393 14.6889 12.5631 13.626 13.626C12.5631 14.6889 11.8393 16.0431 11.546 17.5173C11.2528 18.9916 11.4033 20.5197 11.9785 21.9084C12.5537 23.2971 13.5279 24.4841 14.7777 25.3192C16.0275 26.1543 17.4969 26.6 19 26.6C21.015 26.5979 22.9469 25.7965 24.3717 24.3717C25.7965 22.9469 26.5979 21.015 26.6 19ZM7.9705 9.76283C8.20818 10.0005 8.53054 10.134 8.86667 10.134C9.20279 10.134 9.52515 10.0005 9.76283 9.76283C10.0005 9.52515 10.134 9.20279 10.134 8.86667C10.134 8.53054 10.0005 8.20818 9.76283 7.9705L7.2295 5.43717C6.99182 5.19949 6.66946 5.06596 6.33333 5.06596C5.99721 5.06596 5.67484 5.19949 5.43717 5.43717C5.19949 5.67484 5.06596 5.99721 5.06596 6.33333C5.06596 6.66946 5.19949 6.99182 5.43717 7.2295L7.9705 9.76283ZM7.9705 28.2372L5.43717 30.7705C5.19949 31.0082 5.06596 31.3305 5.06596 31.6667C5.06596 32.0028 5.19949 32.3252 5.43717 32.5628C5.67484 32.8005 5.99721 32.934 6.33333 32.934C6.66946 32.934 6.99182 32.8005 7.2295 32.5628L9.76283 30.0295C9.88052 29.9118 9.97387 29.7721 10.0376 29.6183C10.1013 29.4646 10.134 29.2998 10.134 29.1333C10.134 28.9669 10.1013 28.8021 10.0376 28.6483C9.97387 28.4946 9.88052 28.3549 9.76283 28.2372C9.64515 28.1195 9.50543 28.0261 9.35167 27.9624C9.1979 27.8987 9.0331 27.866 8.86667 27.866C8.70023 27.866 8.53543 27.8987 8.38166 27.9624C8.2279 28.0261 8.08819 28.1195 7.9705 28.2372ZM29.1333 10.1333C29.2997 10.1335 29.4645 10.1008 29.6183 10.0372C29.772 9.97367 29.9118 9.88042 30.0295 9.76283L32.5628 7.2295C32.8005 6.99182 32.934 6.66946 32.934 6.33333C32.934 5.99721 32.8005 5.67484 32.5628 5.43717C32.3252 5.19949 32.0028 5.06596 31.6667 5.06596C31.3305 5.06596 31.0082 5.19949 30.7705 5.43717L28.2372 7.9705C28.0598 8.14765 27.939 8.37344 27.8901 8.61928C27.8411 8.86512 27.8662 9.11996 27.9621 9.35153C28.0581 9.58311 28.2206 9.78101 28.4291 9.92018C28.6376 10.0593 28.8827 10.1335 29.1333 10.1333ZM30.0295 28.2372C29.7918 27.9995 29.4695 27.866 29.1333 27.866C28.7972 27.866 28.4748 27.9995 28.2372 28.2372C27.9995 28.4748 27.866 28.7972 27.866 29.1333C27.866 29.4695 27.9995 29.7918 28.2372 30.0295L30.7705 32.5628C30.8882 32.6805 31.0279 32.7739 31.1817 32.8376C31.3354 32.9013 31.5002 32.934 31.6667 32.934C31.8331 32.934 31.9979 32.9013 32.1517 32.8376C32.3054 32.7739 32.4451 32.6805 32.5628 32.5628C32.6805 32.4451 32.7739 32.3054 32.8376 32.1517C32.9013 31.9979 32.934 31.8331 32.934 31.6667C32.934 31.5002 32.9013 31.3354 32.8376 31.1817C32.7739 31.0279 32.6805 30.8882 32.5628 30.7705L30.0295 28.2372ZM6.33333 19C6.33333 18.6641 6.19988 18.3419 5.96233 18.1043C5.72479 17.8668 5.40261 17.7333 5.06667 17.7333H1.26667C0.930726 17.7333 0.608544 17.8668 0.370998 18.1043C0.133452 18.3419 0 18.6641 0 19C0 19.3359 0.133452 19.6581 0.370998 19.8957C0.608544 20.1332 0.930726 20.2667 1.26667 20.2667H5.06667C5.40261 20.2667 5.72479 20.1332 5.96233 19.8957C6.19988 19.6581 6.33333 19.3359 6.33333 19ZM19 31.6667C18.6641 31.6667 18.3419 31.8001 18.1043 32.0377C17.8668 32.2752 17.7333 32.5974 17.7333 32.9333V36.7333C17.7333 37.0693 17.8668 37.3915 18.1043 37.629C18.3419 37.8665 18.6641 38 19 38C19.3359 38 19.6581 37.8665 19.8957 37.629C20.1332 37.3915 20.2667 37.0693 20.2667 36.7333V32.9333C20.2667 32.5974 20.1332 32.2752 19.8957 32.0377C19.6581 31.8001 19.3359 31.6667 19 31.6667ZM36.7333 17.7333H32.9333C32.5974 17.7333 32.2752 17.8668 32.0377 18.1043C31.8001 18.3419 31.6667 18.6641 31.6667 19C31.6667 19.3359 31.8001 19.6581 32.0377 19.8957C32.2752 20.1332 32.5974 20.2667 32.9333 20.2667H36.7333C37.0693 20.2667 37.3915 20.1332 37.629 19.8957C37.8665 19.6581 38 19.3359 38 19C38 18.6641 37.8665 18.3419 37.629 18.1043C37.3915 17.8668 37.0693 17.7333 36.7333 17.7333Z" fill="white"/>
</svg>
